<svg width="405" height="55" viewBox="0 0 405 55" fill="none" xmlns="http://www.w3.org/2000/svg">
<path d="M84.7273 17.7273H87.5455V34.3636C87.5455 35.8485 87.2727 37.1098 86.7273 38.1477C86.1818 39.1856 85.4129 39.9735 84.4205 40.5114C83.428 41.0492 82.2576 41.3182 80.9091 41.3182C79.6364 41.3182 78.5038 41.0871 77.5114 40.625C76.5189 40.1553 75.7386 39.4886 75.1705 38.625C74.6023 37.7614 74.3182 36.7348 74.3182 35.5455H77.0909C77.0909 36.2045 77.2538 36.7803 77.5795 37.2727C77.9129 37.7576 78.3674 38.1364 78.9432 38.4091C79.5189 38.6818 80.1742 38.8182 80.9091 38.8182C81.7197 38.8182 82.4091 38.6477 82.9773 38.3068C83.5455 37.9659 83.9773 37.4659 84.2727 36.8068C84.5758 36.1402 84.7273 35.3258 84.7273 34.3636V17.7273ZM112.83 29.3636C112.83 31.8182 112.386 33.9394 111.5 35.7273C110.614 37.5152 109.398 38.8939 107.852 39.8636C106.307 40.8333 104.542 41.3182 102.557 41.3182C100.572 41.3182 98.8068 40.8333 97.2614 39.8636C95.7159 38.8939 94.5 37.5152 93.6136 35.7273C92.7273 33.9394 92.2841 31.8182 92.2841 29.3636C92.2841 26.9091 92.7273 24.7879 93.6136 23C94.5 21.2121 95.7159 19.8333 97.2614 18.8636C98.8068 17.8939 100.572 17.4091 102.557 17.4091C104.542 17.4091 106.307 17.8939 107.852 18.8636C109.398 19.8333 110.614 21.2121 111.5 23C112.386 24.7879 112.83 26.9091 112.83 29.3636ZM110.102 29.3636C110.102 27.3485 109.765 25.6477 109.091 24.2614C108.424 22.875 107.519 21.8258 106.375 21.1136C105.239 20.4015 103.966 20.0455 102.557 20.0455C101.148 20.0455 99.8712 20.4015 98.7273 21.1136C97.5909 21.8258 96.6856 22.875 96.0114 24.2614C95.3447 25.6477 95.0114 27.3485 95.0114 29.3636C95.0114 31.3788 95.3447 33.0795 96.0114 34.4659C96.6856 35.8523 97.5909 36.9015 98.7273 37.6136C99.8712 38.3258 101.148 38.6818 102.557 38.6818C103.966 38.6818 105.239 38.3258 106.375 37.6136C107.519 36.9015 108.424 35.8523 109.091 34.4659C109.765 33.0795 110.102 31.3788 110.102 29.3636ZM132.841 17.7273H135.659V33.1364C135.659 34.7273 135.284 36.1477 134.534 37.3977C133.792 38.6402 132.742 39.6212 131.386 40.3409C130.03 41.053 128.439 41.4091 126.614 41.4091C124.788 41.4091 123.197 41.053 121.841 40.3409C120.485 39.6212 119.432 38.6402 118.682 37.3977C117.939 36.1477 117.568 34.7273 117.568 33.1364V17.7273H120.386V32.9091C120.386 34.0455 120.636 35.0568 121.136 35.9432C121.636 36.822 122.348 37.5152 123.273 38.0227C124.205 38.5227 125.318 38.7727 126.614 38.7727C127.909 38.7727 129.023 38.5227 129.955 38.0227C130.886 37.5152 131.598 36.822 132.091 35.9432C132.591 35.0568 132.841 34.0455 132.841 32.9091V17.7273ZM159.741 17.7273V41H157.014L144.332 22.7273H144.105V41H141.287V17.7273H144.014L156.741 36.0455H156.969V17.7273H159.741ZM181.29 25C181.04 24.2348 180.71 23.5492 180.301 22.9432C179.9 22.3295 179.419 21.8068 178.858 21.375C178.305 20.9432 177.676 20.6136 176.972 20.3864C176.267 20.1591 175.494 20.0455 174.653 20.0455C173.275 20.0455 172.021 20.4015 170.892 21.1136C169.763 21.8258 168.866 22.875 168.199 24.2614C167.532 25.6477 167.199 27.3485 167.199 29.3636C167.199 31.3788 167.536 33.0795 168.21 34.4659C168.884 35.8523 169.797 36.9015 170.949 37.6136C172.1 38.3258 173.396 38.6818 174.835 38.6818C176.169 38.6818 177.343 38.3977 178.358 37.8295C179.381 37.2538 180.176 36.4432 180.744 35.3977C181.32 34.3447 181.608 33.1061 181.608 31.6818L182.472 31.8636H175.472V29.3636H184.335V31.8636C184.335 33.7803 183.926 35.447 183.108 36.8636C182.297 38.2803 181.176 39.3788 179.744 40.1591C178.32 40.9318 176.684 41.3182 174.835 41.3182C172.775 41.3182 170.964 40.8333 169.403 39.8636C167.85 38.8939 166.638 37.5152 165.767 35.7273C164.903 33.9394 164.472 31.8182 164.472 29.3636C164.472 27.5227 164.718 25.8674 165.21 24.3977C165.71 22.9205 166.415 21.6629 167.324 20.625C168.233 19.5871 169.309 18.7917 170.551 18.2386C171.794 17.6856 173.161 17.4091 174.653 17.4091C175.881 17.4091 177.025 17.5947 178.085 17.9659C179.153 18.3295 180.104 18.8485 180.938 19.5227C181.778 20.1894 182.479 20.9886 183.04 21.9205C183.6 22.8447 183.987 23.8712 184.199 25H181.29ZM191.162 17.7273V19.7727C191.162 20.3939 191.048 21.0568 190.821 21.7614C190.601 22.4583 190.276 23.1364 189.844 23.7955C189.42 24.447 188.904 25.0152 188.298 25.5L186.844 24.3182C187.321 23.6364 187.734 22.928 188.082 22.1932C188.438 21.4508 188.616 20.6591 188.616 19.8182V17.7273H191.162ZM204.599 27.4545L202.19 28.1364C202.039 27.7348 201.815 27.3447 201.52 26.9659C201.232 26.5795 200.838 26.2614 200.338 26.0114C199.838 25.7614 199.198 25.6364 198.418 25.6364C197.349 25.6364 196.459 25.8826 195.747 26.375C195.043 26.8598 194.69 27.4773 194.69 28.2273C194.69 28.8939 194.933 29.4205 195.418 29.8068C195.902 30.1932 196.66 30.5152 197.69 30.7727L200.281 31.4091C201.842 31.7879 203.005 32.3674 203.77 33.1477C204.535 33.9205 204.918 34.9167 204.918 36.1364C204.918 37.1364 204.63 38.0303 204.054 38.8182C203.486 39.6061 202.69 40.2273 201.668 40.6818C200.645 41.1364 199.455 41.3636 198.099 41.3636C196.319 41.3636 194.846 40.9773 193.679 40.2045C192.512 39.4318 191.774 38.303 191.463 36.8182L194.009 36.1818C194.251 37.1212 194.709 37.8258 195.384 38.2955C196.065 38.7652 196.955 39 198.054 39C199.304 39 200.296 38.7348 201.031 38.2045C201.774 37.6667 202.145 37.0227 202.145 36.2727C202.145 35.6667 201.933 35.1591 201.509 34.75C201.084 34.3333 200.433 34.0227 199.554 33.8182L196.645 33.1364C195.046 32.7576 193.872 32.1705 193.122 31.375C192.38 30.572 192.009 29.5682 192.009 28.3636C192.009 27.3788 192.285 26.5076 192.838 25.75C193.399 24.9924 194.16 24.3977 195.122 23.9659C196.092 23.5341 197.19 23.3182 198.418 23.3182C200.145 23.3182 201.501 23.697 202.486 24.4545C203.478 25.2121 204.183 26.2121 204.599 27.4545ZM218.318 41V17.7273H226.182C228.008 17.7273 229.5 18.0568 230.659 18.7159C231.826 19.3674 232.689 20.25 233.25 21.3636C233.811 22.4773 234.091 23.7197 234.091 25.0909C234.091 26.4621 233.811 27.7083 233.25 28.8295C232.697 29.9508 231.841 30.8447 230.682 31.5114C229.523 32.1705 228.038 32.5 226.227 32.5H220.591V30H226.136C227.386 30 228.39 29.7841 229.148 29.3523C229.905 28.9205 230.455 28.3371 230.795 27.6023C231.144 26.8598 231.318 26.0227 231.318 25.0909C231.318 24.1591 231.144 23.3258 230.795 22.5909C230.455 21.8561 229.902 21.2803 229.136 20.8636C228.371 20.4394 227.356 20.2273 226.091 20.2273H221.136V41H218.318ZM258.267 29.3636C258.267 31.8182 257.824 33.9394 256.938 35.7273C256.051 37.5152 254.835 38.8939 253.29 39.8636C251.744 40.8333 249.979 41.3182 247.994 41.3182C246.009 41.3182 244.244 40.8333 242.699 39.8636C241.153 38.8939 239.938 37.5152 239.051 35.7273C238.165 33.9394 237.722 31.8182 237.722 29.3636C237.722 26.9091 238.165 24.7879 239.051 23C239.938 21.2121 241.153 19.8333 242.699 18.8636C244.244 17.8939 246.009 17.4091 247.994 17.4091C249.979 17.4091 251.744 17.8939 253.29 18.8636C254.835 19.8333 256.051 21.2121 256.938 23C257.824 24.7879 258.267 26.9091 258.267 29.3636ZM255.54 29.3636C255.54 27.3485 255.203 25.6477 254.528 24.2614C253.862 22.875 252.956 21.8258 251.812 21.1136C250.676 20.4015 249.403 20.0455 247.994 20.0455C246.585 20.0455 245.309 20.4015 244.165 21.1136C243.028 21.8258 242.123 22.875 241.449 24.2614C240.782 25.6477 240.449 27.3485 240.449 29.3636C240.449 31.3788 240.782 33.0795 241.449 34.4659C242.123 35.8523 243.028 36.9015 244.165 37.6136C245.309 38.3258 246.585 38.6818 247.994 38.6818C249.403 38.6818 250.676 38.3258 251.812 37.6136C252.956 36.9015 253.862 35.8523 254.528 34.4659C255.203 33.0795 255.54 31.3788 255.54 29.3636ZM263.006 41V17.7273H270.869C272.688 17.7273 274.18 18.0379 275.347 18.6591C276.513 19.2727 277.377 20.1174 277.938 21.1932C278.498 22.2689 278.778 23.4924 278.778 24.8636C278.778 26.2348 278.498 27.4508 277.938 28.5114C277.377 29.572 276.517 30.4053 275.358 31.0114C274.199 31.6098 272.718 31.9091 270.915 31.9091H264.551V29.3636H270.824C272.066 29.3636 273.066 29.1818 273.824 28.8182C274.589 28.4545 275.142 27.9394 275.483 27.2727C275.831 26.5985 276.006 25.7955 276.006 24.8636C276.006 23.9318 275.831 23.1174 275.483 22.4205C275.134 21.7235 274.578 21.1856 273.812 20.8068C273.047 20.4205 272.036 20.2273 270.778 20.2273H265.824V41H263.006ZM273.96 30.5455L279.688 41H276.415L270.778 30.5455H273.96ZM282.202 20.2273V17.7273H299.656V20.2273H292.338V41H289.52V20.2273H282.202ZM304.006 41V17.7273H317.96V20.2273H306.824V28.0909H316.915V30.5909H306.824V41H304.006ZM342.423 29.3636C342.423 31.8182 341.98 33.9394 341.094 35.7273C340.207 37.5152 338.991 38.8939 337.446 39.8636C335.901 40.8333 334.135 41.3182 332.151 41.3182C330.166 41.3182 328.401 40.8333 326.855 39.8636C325.31 38.8939 324.094 37.5152 323.207 35.7273C322.321 33.9394 321.878 31.8182 321.878 29.3636C321.878 26.9091 322.321 24.7879 323.207 23C324.094 21.2121 325.31 19.8333 326.855 18.8636C328.401 17.8939 330.166 17.4091 332.151 17.4091C334.135 17.4091 335.901 17.8939 337.446 18.8636C338.991 19.8333 340.207 21.2121 341.094 23C341.98 24.7879 342.423 26.9091 342.423 29.3636ZM339.696 29.3636C339.696 27.3485 339.359 25.6477 338.685 24.2614C338.018 22.875 337.113 21.8258 335.969 21.1136C334.832 20.4015 333.56 20.0455 332.151 20.0455C330.741 20.0455 329.465 20.4015 328.321 21.1136C327.185 21.8258 326.279 22.875 325.605 24.2614C324.938 25.6477 324.605 27.3485 324.605 29.3636C324.605 31.3788 324.938 33.0795 325.605 34.4659C326.279 35.8523 327.185 36.9015 328.321 37.6136C329.465 38.3258 330.741 38.6818 332.151 38.6818C333.56 38.6818 334.832 38.3258 335.969 37.6136C337.113 36.9015 338.018 35.8523 338.685 34.4659C339.359 33.0795 339.696 31.3788 339.696 29.3636ZM347.162 41V17.7273H349.98V38.5H360.798V41H347.162ZM367.98 17.7273V41H365.162V17.7273H367.98ZM393.267 29.3636C393.267 31.8182 392.824 33.9394 391.938 35.7273C391.051 37.5152 389.835 38.8939 388.29 39.8636C386.744 40.8333 384.979 41.3182 382.994 41.3182C381.009 41.3182 379.244 40.8333 377.699 39.8636C376.153 38.8939 374.938 37.5152 374.051 35.7273C373.165 33.9394 372.722 31.8182 372.722 29.3636C372.722 26.9091 373.165 24.7879 374.051 23C374.938 21.2121 376.153 19.8333 377.699 18.8636C379.244 17.8939 381.009 17.4091 382.994 17.4091C384.979 17.4091 386.744 17.8939 388.29 18.8636C389.835 19.8333 391.051 21.2121 391.938 23C392.824 24.7879 393.267 26.9091 393.267 29.3636ZM390.54 29.3636C390.54 27.3485 390.203 25.6477 389.528 24.2614C388.862 22.875 387.956 21.8258 386.812 21.1136C385.676 20.4015 384.403 20.0455 382.994 20.0455C381.585 20.0455 380.309 20.4015 379.165 21.1136C378.028 21.8258 377.123 22.875 376.449 24.2614C375.782 25.6477 375.449 27.3485 375.449 29.3636C375.449 31.3788 375.782 33.0795 376.449 34.4659C377.123 35.8523 378.028 36.9015 379.165 37.6136C380.309 38.3258 381.585 38.6818 382.994 38.6818C384.403 38.6818 385.676 38.3258 386.812 37.6136C387.956 36.9015 388.862 35.8523 389.528 34.4659C390.203 33.0795 390.54 31.3788 390.54 29.3636Z" fill="#FFF5EA"/>
<path d="M39.6491 49.807C49.2317 49.807 57 42.0388 57 32.4561C57 22.8735 49.2317 15.1053 39.6491 15.1053C30.0665 15.1053 22.2982 22.8735 22.2982 32.4561C22.2982 42.0388 30.0665 49.807 39.6491 49.807Z" fill="#EAEAEA"/>
<path d="M19.0702 4.61403C19.5159 4.61403 19.8772 4.25272 19.8772 3.80702C19.8772 3.36131 19.5159 3 19.0702 3C18.6245 3 18.2632 3.36131 18.2632 3.80702C18.2632 4.25272 18.6245 4.61403 19.0702 4.61403Z" fill="#4C241D"/>
<path d="M53.7719 43.3509C54.2176 43.3509 54.5789 42.9896 54.5789 42.5439C54.5789 42.0982 54.2176 41.7368 53.7719 41.7368C53.3262 41.7368 52.9649 42.0982 52.9649 42.5439C52.9649 42.9896 53.3262 43.3509 53.7719 43.3509Z" fill="#4C241D"/>
<path d="M14.3322 7.84207L11.9531 10.2212" stroke="#4C241D" stroke-width="3.02737" stroke-linecap="round" stroke-linejoin="round"/>
<path d="M11.9531 7.84207L14.3322 10.2212" stroke="#4C241D" stroke-width="3.02737" stroke-linecap="round" stroke-linejoin="round"/>
<path d="M56.193 50.614C56.193 49.7579 55.8529 48.9368 55.2475 48.3314C54.6421 47.7261 53.821 47.386 52.9649 47.386H14.2281C13.3719 47.386 12.5509 47.7261 11.9455 48.3314C11.3401 48.9368 11 49.7579 11 50.614" fill="#9DC1E4"/>
<path d="M56.193 50.614C56.193 49.7579 55.8529 48.9368 55.2475 48.3314C54.6421 47.7261 53.821 47.386 52.9649 47.386H14.2281C13.3719 47.386 12.5509 47.7261 11.9455 48.3314C11.3401 48.9368 11 49.7579 11 50.614" stroke="#4C241D" stroke-width="3.02737" stroke-linecap="round" stroke-linejoin="round"/>
<path d="M33.5965 42.5439C43.8477 42.5439 52.1579 34.2336 52.1579 23.9825C52.1579 13.7313 43.8477 5.42105 33.5965 5.42105C23.3453 5.42105 15.0351 13.7313 15.0351 23.9825C15.0351 34.2336 23.3453 42.5439 33.5965 42.5439Z" stroke="#4C241D" stroke-width="3.02737" stroke-linecap="round" stroke-linejoin="round"/>
<path d="M18.2632 23.9825H48.9298" stroke="#B5A19C" stroke-width="3.02737" stroke-linecap="round" stroke-linejoin="round"/>
<path d="M33.5965 39.3158V8.64914" stroke="#B5A19C" stroke-width="3.02737" stroke-linecap="round" stroke-linejoin="round"/>
<path d="M22.7542 34.8248L44.4388 13.1402" stroke="#B5A19C" stroke-width="3.02737" stroke-linecap="round" stroke-linejoin="round"/>
<path d="M44.4388 34.8248L22.7542 13.1402" stroke="#B5A19C" stroke-width="3.02737" stroke-linecap="round" stroke-linejoin="round"/>
<path d="M19.4648 29.9334L47.7282 18.0315" stroke="#B5A19C" stroke-width="3.02737" stroke-linecap="round" stroke-linejoin="round"/>
<path d="M39.5474 38.1142L27.6455 9.8508" stroke="#B5A19C" stroke-width="3.02737" stroke-linecap="round" stroke-linejoin="round"/>
<path d="M27.8126 38.1827L39.3804 9.78214" stroke="#B5A19C" stroke-width="3.02737" stroke-linecap="round" stroke-linejoin="round"/>
<path d="M47.7968 29.7664L19.3962 18.1986" stroke="#B5A19C" stroke-width="3.02737" stroke-linecap="round" stroke-linejoin="round"/>
<path d="M33.5965 23.1754L27.1404 47.386H40.0526L33.5965 23.1754Z" stroke="#4C241D" stroke-width="3.02737" stroke-linecap="round" stroke-linejoin="round"/>
<path d="M33.5965 25.5965C34.4879 25.5965 35.2105 24.8738 35.2105 23.9824C35.2105 23.091 34.4879 22.3684 33.5965 22.3684C32.7051 22.3684 31.9825 23.091 31.9825 23.9824C31.9825 24.8738 32.7051 25.5965 33.5965 25.5965Z" stroke="#4C241D" stroke-width="3.02737" stroke-linecap="round" stroke-linejoin="round"/>
<path d="M31.9825 3.80701H35.2105V7.03508H31.9825V3.80701Z" stroke="#4C241D" stroke-width="3.07205" stroke-linecap="round" stroke-linejoin="round"/>
<path d="M31.9825 40.9298H35.2105V44.1579H31.9825V40.9298Z" stroke="#4C241D" stroke-width="3.07205" stroke-linecap="round" stroke-linejoin="round"/>
<path d="M13.4211 25.5965V22.3684H16.6491V25.5965H13.4211Z" stroke="#4C241D" stroke-width="3.07205" stroke-linecap="round" stroke-linejoin="round"/>
<path d="M50.5439 25.5965V22.3684H53.7719V25.5965H50.5439Z" stroke="#4C241D" stroke-width="3.07205" stroke-linecap="round" stroke-linejoin="round"/>
<path d="M18.1894 10.8576L20.472 8.57502L22.7546 10.8576L20.472 13.1402L18.1894 10.8576Z" stroke="#4C241D" stroke-width="3.07205" stroke-linecap="round" stroke-linejoin="round"/>
<path d="M44.4382 37.1075L46.7208 34.8249L49.0034 37.1075L46.7208 39.39L44.4382 37.1075Z" stroke="#4C241D" stroke-width="3.07205" stroke-linecap="round" stroke-linejoin="round"/>
<path d="M20.4711 39.39L18.1885 37.1075L20.4711 34.8249L22.7537 37.1075L20.4711 39.39Z" stroke="#4C241D" stroke-width="3.07205" stroke-linecap="round" stroke-linejoin="round"/>
<path d="M46.722 13.1402L44.4394 10.8576L46.722 8.57502L49.0046 10.8576L46.722 13.1402Z" stroke="#4C241D" stroke-width="3.07205" stroke-linecap="round" stroke-linejoin="round"/>
<path d="M39.6491 49.807C49.2317 49.807 57 42.0388 57 32.4561C57 22.8735 49.2317 15.1053 39.6491 15.1053C30.0665 15.1053 22.2982 22.8735 22.2982 32.4561C22.2982 42.0388 30.0665 49.807 39.6491 49.807Z" fill="#EAEAEA"/>
<path d="M19.0702 4.61403C19.5159 4.61403 19.8772 4.25272 19.8772 3.80702C19.8772 3.36131 19.5159 3 19.0702 3C18.6245 3 18.2632 3.36131 18.2632 3.80702C18.2632 4.25272 18.6245 4.61403 19.0702 4.61403Z" fill="#4C241D"/>
<path d="M53.7719 43.3509C54.2176 43.3509 54.5789 42.9896 54.5789 42.5439C54.5789 42.0982 54.2176 41.7368 53.7719 41.7368C53.3262 41.7368 52.9649 42.0982 52.9649 42.5439C52.9649 42.9896 53.3262 43.3509 53.7719 43.3509Z" fill="#4C241D"/>
<path d="M14.3322 7.84207L11.9531 10.2212" stroke="#4C241D" stroke-width="3.02737" stroke-linecap="round" stroke-linejoin="round"/>
<path d="M11.9531 7.84207L14.3322 10.2212" stroke="#4C241D" stroke-width="3.02737" stroke-linecap="round" stroke-linejoin="round"/>
<path d="M56.193 50.614C56.193 49.7579 55.8529 48.9368 55.2475 48.3314C54.6421 47.7261 53.821 47.386 52.9649 47.386H14.2281C13.3719 47.386 12.5509 47.7261 11.9455 48.3314C11.3401 48.9368 11 49.7579 11 50.614" fill="#9DC1E4"/>
<path d="M56.193 50.614C56.193 49.7579 55.8529 48.9368 55.2475 48.3314C54.6421 47.7261 53.821 47.386 52.9649 47.386H14.2281C13.3719 47.386 12.5509 47.7261 11.9455 48.3314C11.3401 48.9368 11 49.7579 11 50.614" stroke="#4C241D" stroke-width="3.02737" stroke-linecap="round" stroke-linejoin="round"/>
<path d="M33.5965 42.5439C43.8477 42.5439 52.1579 34.2336 52.1579 23.9825C52.1579 13.7313 43.8477 5.42105 33.5965 5.42105C23.3453 5.42105 15.0351 13.7313 15.0351 23.9825C15.0351 34.2336 23.3453 42.5439 33.5965 42.5439Z" stroke="#4C241D" stroke-width="3.02737" stroke-linecap="round" stroke-linejoin="round"/>
<path d="M18.2632 23.9825H48.9298" stroke="#B5A19C" stroke-width="3.02737" stroke-linecap="round" stroke-linejoin="round"/>
<path d="M33.5965 39.3158V8.64914" stroke="#B5A19C" stroke-width="3.02737" stroke-linecap="round" stroke-linejoin="round"/>
<path d="M22.7542 34.8248L44.4388 13.1402" stroke="#B5A19C" stroke-width="3.02737" stroke-linecap="round" stroke-linejoin="round"/>
<path d="M44.4388 34.8248L22.7542 13.1402" stroke="#B5A19C" stroke-width="3.02737" stroke-linecap="round" stroke-linejoin="round"/>
<path d="M19.4648 29.9334L47.7282 18.0315" stroke="#B5A19C" stroke-width="3.02737" stroke-linecap="round" stroke-linejoin="round"/>
<path d="M39.5474 38.1142L27.6455 9.8508" stroke="#B5A19C" stroke-width="3.02737" stroke-linecap="round" stroke-linejoin="round"/>
<path d="M27.8126 38.1827L39.3804 9.78214" stroke="#B5A19C" stroke-width="3.02737" stroke-linecap="round" stroke-linejoin="round"/>
<path d="M47.7968 29.7664L19.3962 18.1986" stroke="#B5A19C" stroke-width="3.02737" stroke-linecap="round" stroke-linejoin="round"/>
<path d="M33.5965 23.1754L27.1404 47.386H40.0526L33.5965 23.1754Z" stroke="#4C241D" stroke-width="3.02737" stroke-linecap="round" stroke-linejoin="round"/>
<path d="M33.5965 25.5965C34.4879 25.5965 35.2105 24.8738 35.2105 23.9824C35.2105 23.091 34.4879 22.3684 33.5965 22.3684C32.7051 22.3684 31.9825 23.091 31.9825 23.9824C31.9825 24.8738 32.7051 25.5965 33.5965 25.5965Z" stroke="#4C241D" stroke-width="3.02737" stroke-linecap="round" stroke-linejoin="round"/>
<path d="M31.9825 3.80701H35.2105V7.03508H31.9825V3.80701Z" stroke="#4C241D" stroke-width="3.07205" stroke-linecap="round" stroke-linejoin="round"/>
<path d="M31.9825 40.9298H35.2105V44.1579H31.9825V40.9298Z" stroke="#4C241D" stroke-width="3.07205" stroke-linecap="round" stroke-linejoin="round"/>
<path d="M13.4211 25.5965V22.3684H16.6491V25.5965H13.4211Z" stroke="#4C241D" stroke-width="3.07205" stroke-linecap="round" stroke-linejoin="round"/>
<path d="M50.5439 25.5965V22.3684H53.7719V25.5965H50.5439Z" stroke="#4C241D" stroke-width="3.07205" stroke-linecap="round" stroke-linejoin="round"/>
<path d="M18.1894 10.8576L20.472 8.57502L22.7546 10.8576L20.472 13.1402L18.1894 10.8576Z" stroke="#4C241D" stroke-width="3.07205" stroke-linecap="round" stroke-linejoin="round"/>
<path d="M44.4382 37.1075L46.7208 34.8249L49.0034 37.1075L46.7208 39.39L44.4382 37.1075Z" stroke="#4C241D" stroke-width="3.07205" stroke-linecap="round" stroke-linejoin="round"/>
<path d="M20.4711 39.39L18.1885 37.1075L20.4711 34.8249L22.7537 37.1075L20.4711 39.39Z" stroke="#4C241D" stroke-width="3.07205" stroke-linecap="round" stroke-linejoin="round"/>
<path d="M46.722 13.1402L44.4394 10.8576L46.722 8.57502L49.0046 10.8576L46.722 13.1402Z" stroke="#4C241D" stroke-width="3.07205" stroke-linecap="round" stroke-linejoin="round"/>
</svg>
